<svg xmlns="http://www.w3.org/2000/svg" width="28.739" height="28.955" viewBox="0 0 28.739 28.955"><defs><style>.a{fill:#fff;}</style></defs><path class="a" d="M279,281.92a2.256,2.256,0,0,0,2.245,2.262h2.638a2.256,2.256,0,0,0,2.245-2.262v-2.658A2.256,2.256,0,0,0,283.883,277h-2.638A2.256,2.256,0,0,0,279,279.262Zm2.245-2.658h2.638v2.658h-2.64Z" transform="translate(-263.339 -261.335)"/><circle class="a" cx="1" cy="1" r="1" transform="translate(20.668 10.955)"/><circle class="a" cx="1" cy="1" r="1" transform="translate(15.668 10.955)"/><path class="a" d="M27.616,19.907a1.127,1.127,0,0,0,1.123-1.131V6.786a4.513,4.513,0,0,0-4.49-4.524H22.789V1.131a1.123,1.123,0,1,0-2.245,0V2.262H15.436V1.131a1.123,1.123,0,1,0-2.245,0V2.262H8.139V1.131a1.123,1.123,0,1,0-2.245,0V2.262H4.49A4.513,4.513,0,0,0,0,6.786V24.431a4.513,4.513,0,0,0,4.49,4.524H24.249a4.513,4.513,0,0,0,4.49-4.524,1.123,1.123,0,1,0-2.245,0,2.256,2.256,0,0,1-2.245,2.262H4.49a2.256,2.256,0,0,1-2.245-2.262V6.786A2.256,2.256,0,0,1,4.49,4.524h1.4V5.655a1.123,1.123,0,1,0,2.245,0V4.524h5.052V5.655a1.123,1.123,0,1,0,2.245,0V4.524h5.108V5.655a1.123,1.123,0,1,0,2.245,0V4.524h1.459a2.256,2.256,0,0,1,2.245,2.262V18.776A1.127,1.127,0,0,0,27.616,19.907Z"/><circle class="a" cx="1" cy="1" r="1" transform="translate(5.668 20.955)"/><circle class="a" cx="1" cy="1" r="1" transform="translate(5.668 10.955)"/><circle class="a" cx="1" cy="1" r="1" transform="translate(5.668 15.955)"/><circle class="a" cx="1" cy="1" r="1" transform="translate(10.668 15.955)"/><circle class="a" cx="1" cy="1" r="1" transform="translate(10.668 10.955)"/><circle class="a" cx="1" cy="1" r="1" transform="translate(10.668 20.955)"/></svg>