<svg xmlns="http://www.w3.org/2000/svg" width="28.164" height="30.955" viewBox="0 0 28.164 30.955"><defs><style>.a{fill:#fff;}.b{fill:#e60404;}</style></defs><path class="a" d="M138.133,421.8a4.825,4.825,0,0,1-4.8-4.837.96.96,0,1,1,1.92,0,2.88,2.88,0,1,0,5.761,0,.96.96,0,1,1,1.92,0A4.825,4.825,0,0,1,138.133,421.8Zm0,0" transform="translate(-125.331 -390.849)"/><path class="a" d="M23.363,87.216H2.24A2.261,2.261,0,0,1,.783,83.244a.885.885,0,0,1,.1-.077,8.7,8.7,0,0,0,2.955-6.539v-3.6A9.006,9.006,0,0,1,12.8,64a3.829,3.829,0,0,1,.631.039.967.967,0,0,1-.315,1.908,2,2,0,0,0-.316-.012,7.076,7.076,0,0,0-7.041,7.094v3.6a10.641,10.641,0,0,1-3.716,8.088c-.019.016-.036.03-.056.044a.321.321,0,0,0-.068.2.325.325,0,0,0,.32.322H23.363a.325.325,0,0,0,.32-.322.31.31,0,0,0-.069-.2c-.019-.014-.036-.028-.055-.044a10.639,10.639,0,0,1-3.716-8.088V75.221a.96.96,0,1,1,1.92,0v1.406a8.7,8.7,0,0,0,2.958,6.543.933.933,0,0,1,.1.075,2.26,2.26,0,0,1-1.457,3.971Zm0,0" transform="translate(0 -60.131)"/><path class="a" d="M262.4,12.9a6.449,6.449,0,1,1,6.4-6.449A6.432,6.432,0,0,1,262.4,12.9Zm0-10.963a4.514,4.514,0,1,0,4.48,4.514A4.5,4.5,0,0,0,262.4,1.935Zm0,0" transform="translate(-240.638)"/><circle class="b" cx="6.5" cy="6.5" r="6.5" transform="translate(14.788)"/></svg>