<svg xmlns="http://www.w3.org/2000/svg" width="26.336" height="26.534" viewBox="0 0 26.336 26.534"><defs><style>.a{fill:#fff;}</style></defs><g transform="translate(26.336 26.534) rotate(180)"><path class="a" d="M22.221,0H4.115A4.135,4.135,0,0,0,0,4.146V5.182a1.029,1.029,0,1,0,2.058,0V4.146A2.068,2.068,0,0,1,4.115,2.073H22.221a2.068,2.068,0,0,1,2.058,2.073V22.388a2.068,2.068,0,0,1-2.058,2.073H4.115a2.068,2.068,0,0,1-2.058-2.073V21.352a1.029,1.029,0,1,0-2.058,0v1.036a4.135,4.135,0,0,0,4.115,4.146H22.221a4.135,4.135,0,0,0,4.115-4.146V4.146A4.135,4.135,0,0,0,22.221,0Z"/><g transform="translate(0.001 6.893)"><path class="a" d="M2.364,7.114l-.007-.007a1.044,1.044,0,0,1,0-1.468L6.18,1.767A1.042,1.042,0,0,0,6.176.3a1.023,1.023,0,0,0-1.455,0L.9,4.176a3.13,3.13,0,0,0,0,4.394L4.717,12.49a1.023,1.023,0,0,0,1.455.014,1.042,1.042,0,0,0,.014-1.466Z"/></g><g transform="translate(5.144 12.231)"><path class="a" d="M11.985,0H1.029a1.037,1.037,0,0,0,0,2.073H11.985a1.037,1.037,0,0,0,0-2.073Z"/></g></g></svg>