<svg width="885.28" height="548.291" xmlns="http://www.w3.org/2000/svg">

 <g>
  <title>background</title>
  <rect fill="none" id="canvas_background" height="550.291" width="887.28" y="-1" x="-1"/>
 </g>
 <g>
  <title>Layer 1</title>
  <g stroke="null" id="svg_1">
   <g stroke="null" id="svg_2">
    <path stroke="null" id="svg_3" fill="#848484" d="m486.206,196.121l-13.166,0l0,-63.525c0,-0.396 -0.062,-0.795 -0.109,-1.2c-0.021,-2.52 -0.829,-4.997 -2.556,-6.96l-105.718,-120.759c-0.033,-0.031 -0.064,-0.042 -0.085,-0.075c-0.63,-0.704 -1.364,-1.29 -2.143,-1.796c-0.229,-0.154 -0.461,-0.283 -0.702,-0.419c-0.672,-0.365 -1.387,-0.672 -2.121,-0.893c-0.2,-0.052 -0.379,-0.134 -0.577,-0.186c-0.799,-0.19 -1.628,-0.308 -2.467,-0.308l-259.805,0c-11.863,0 -21.501,9.649 -21.501,21.502l0,174.613l-13.164,0c-16.971,0 -30.732,13.756 -30.732,30.733l0,159.812c0,16.961 13.761,30.731 30.732,30.731l13.164,0l0,109.399c0,11.854 9.638,21.501 21.501,21.501l354.776,0c11.853,0 21.501,-9.647 21.501,-21.501l0,-109.398l13.166,0c16.966,0 30.729,-13.764 30.729,-30.731l0,-159.807c0.001,-16.982 -13.753,-30.733 -30.723,-30.733zm-389.449,-174.619l249.054,0l0,110.006c0,5.94 4.817,10.751 10.751,10.751l94.972,0l0,53.861l-354.777,0l0,-174.618zm217.819,293.159c-21.124,-7.359 -34.908,-19.045 -34.908,-37.544c0,-21.698 18.11,-38.297 48.116,-38.297c14.331,0 24.903,3.014 32.442,6.413l-6.411,23.2c-5.091,-2.446 -14.146,-6.037 -26.598,-6.037s-18.488,5.662 -18.488,12.266c0,8.115 7.171,11.696 23.58,17.921c22.446,8.305 33.013,20 33.013,37.921c0,21.323 -16.415,39.435 -51.318,39.435c-14.524,0 -28.861,-3.769 -36.031,-7.737l5.843,-23.77c7.738,3.958 19.627,7.927 31.885,7.927c13.218,0 20.188,-5.47 20.188,-13.774c0.005,-7.918 -6.031,-12.455 -21.313,-17.924zm-48.659,29.239l0,24.157l-79.439,0l0,-127.175l28.877,0l0,103.018l50.562,0zm-171.68,24.157l-32.826,0l36.788,-64.353l-35.473,-62.827l33.021,0l11.125,23.21c3.774,7.736 6.606,13.954 9.628,21.135l0.367,0c3.027,-8.115 5.477,-13.775 8.675,-21.135l10.756,-23.21l32.827,0l-35.848,62.066l37.74,65.103l-33.202,0l-11.515,-23.022c-4.709,-8.855 -7.73,-15.465 -11.316,-22.824l-0.375,0c-2.645,7.359 -5.845,13.969 -9.811,22.824l-10.561,23.033zm357.297,152.911l-354.777,0l0,-103.576l354.776,0l0,103.576l0.001,0zm0.194,-152.911l-11.512,-23.022c-4.715,-8.863 -7.733,-15.465 -11.319,-22.825l-0.366,0c-2.646,7.36 -5.858,13.962 -9.827,22.825l-10.551,23.022l-32.836,0l36.788,-64.353l-35.471,-62.827l33.02,0l11.139,23.21c3.77,7.736 6.593,13.954 9.618,21.135l0.377,0c3.013,-8.115 5.459,-13.775 8.671,-21.135l10.752,-23.21l32.835,0l-35.849,62.066l37.733,65.103l-33.202,0l0,0.011z"/>
   </g>
  </g>
  <g stroke="null" id="svg_14">
   <g stroke="null" transform="matrix(27.15670675768932,0,0,27.15670675768932,571.2043117244143,-116.66083135416682) " id="svg_11">
    <path id="svg_12" fill="#848484" d="m4.80931,23.77312c-0.205,0 -0.401,-0.084 -0.542,-0.232l-5.25,-5.5c-0.455,-0.476 -0.117,-1.268 0.542,-1.268l2.75,0l0,-5.75c0,-0.689 0.561,-1.25 1.25,-1.25l2.5,0c0.689,0 1.25,0.561 1.25,1.25l0,5.75l2.75,0c0.659,0 0.997,0.792 0.542,1.268l-5.25,5.5c-0.141,0.148 -0.337,0.232 -0.542,0.232z"/>
    <path id="svg_13" fill="#848484" d="m15.05931,29.77312l-20.5,0c-0.965,0 -1.75,-0.785 -1.75,-1.75l0,-0.5c0,-0.965 0.785,-1.75 1.75,-1.75l20.5,0c0.965,0 1.75,0.785 1.75,1.75l0,0.5c0,0.965 -0.785,1.75 -1.75,1.75z"/>
   </g>
  </g>
 </g>
</svg>