<svg xmlns="http://www.w3.org/2000/svg" xmlns:xlink="http://www.w3.org/1999/xlink" width="157.4" height="16" viewBox="0 0 157.4 16"><defs><style>.a{fill:none;}.b{fill:#2c2c2c;font-size:14px;font-family:Gilroy-Light, Gilroy;font-weight:300;}.c{clip-path:url(#a);}.d{fill:#0a94d6;}.e{clip-path:url(#b);}</style><clipPath id="a"><rect class="a" width="16" height="16"/></clipPath><clipPath id="b"><rect class="a" width="9.4" height="6.1"/></clipPath></defs><g transform="translate(-1662 -260)"><text class="b" transform="translate(1695 273)"><tspan x="0" y="0">EXPEDIENTES</tspan></text><g class="c" transform="translate(1662 260)"><path class="d" d="M0,0V4H16V0ZM3,3H1V1H3ZM0,10H16V6H0ZM1,7H3V9H1ZM0,16H16V12H0Zm1-3H3v2H1Z"/></g><g class="e" transform="translate(1810 265)"><path class="d" d="M6.7,8.1,2,3.4,3.4,2,6.7,5.3,10,2l1.4,1.4Z" transform="translate(-2 -2)"/></g></g></svg>