<svg width="885.28" height="548.291" xmlns="http://www.w3.org/2000/svg">

 <g>
  <title>background</title>
  <rect fill="none" id="canvas_background" height="550.291" width="887.28" y="-1" x="-1"/>
 </g>
 <g>
  <title>Layer 1</title>
  <g stroke="null" id="svg_61">
   <g stroke="null" transform="matrix(1.0004049682030332,0,0,0.9900511387890768,-3879.1379948929134,-2238.8100356937284) " id="svg_42">
    <g stroke="null" id="svg_43">
     <path stroke="null" id="svg_44" fill="#848484" d="m4126.11459,2513.60982c-7.409,0 -12.438,0.72 -15.072,1.442l0,47.614c3.117,0.718 6.945,0.96 12.203,0.96c19.388,0 31.356,-9.819 31.356,-26.32c0,-14.839 -10.297,-23.696 -28.487,-23.696z"/>
     <path stroke="null" id="svg_45" fill="#848484" d="m4361.91059,2460.08982l-13.226,0l0,-63.816c0,-0.398 -0.063,-0.799 -0.116,-1.202c-0.021,-2.534 -0.827,-5.023 -2.562,-6.995l-106.197,-121.312c-0.032,-0.031 -0.063,-0.042 -0.085,-0.076c-0.633,-0.707 -1.371,-1.295 -2.151,-1.804c-0.231,-0.155 -0.464,-0.285 -0.706,-0.419c-0.676,-0.369 -1.393,-0.675 -2.131,-0.896c-0.2,-0.056 -0.38,-0.138 -0.58,-0.19c-0.802,-0.19 -1.635,-0.309 -2.479,-0.309l-260.993,0c-11.918,0 -21.6,9.693 -21.6,21.601l0,175.413l-13.223,0c-17.049,0 -30.873,13.818 -30.873,30.873l0,160.545c0,17.043 13.824,30.87 30.873,30.87l13.224,0l0,109.898c0,11.907 9.682,21.601 21.6,21.601l356.4,0c11.907,0 21.6,-9.693 21.6,-21.601l0,-109.898l13.226,0c17.044,0 30.871,-13.827 30.871,-30.87l0,-160.54c-0.001,-17.054 -13.828,-30.873 -30.872,-30.873zm-391.226,-175.414l250.193,0l0,110.513c0,5.967 4.841,10.8 10.8,10.8l95.407,0l0,54.108l-356.4,0l0,-175.421zm220.04,251.667c0,15.791 -5.264,29.191 -14.829,38.293c-12.451,11.723 -30.876,16.98 -52.402,16.98c-4.788,0 -9.102,-0.231 -12.451,-0.712l0,57.665l-36.131,0l0,-159.117c11.253,-1.925 27.042,-3.354 49.296,-3.354c22.491,0 38.524,4.303 49.304,12.922c10.279,8.132 17.213,21.535 17.213,37.323zm-230.207,111.03l4.076,-29.431c5.028,1.677 11.48,2.879 18.658,2.879c15.325,0 24.888,-6.95 24.888,-32.072l0,-101.459l36.368,0l0,101.934c0,45.947 -22.02,61.973 -57.428,61.973c-8.368,0.005 -19.379,-1.419 -26.562,-3.824zm366.568,139.051l-356.401,0l0,-104.051l356.4,0l0,104.051l0.001,0zm21.588,-145.268c-11.242,3.828 -32.537,9.091 -53.852,9.091c-29.416,0 -50.721,-7.419 -65.549,-21.773c-14.84,-13.875 -22.987,-34.932 -22.739,-58.625c0.231,-53.602 39.234,-84.23 92.127,-84.23c20.819,0 36.861,4.061 44.75,7.894l-7.657,29.191c-8.859,-3.829 -19.87,-6.94 -37.578,-6.94c-30.386,0 -53.346,17.234 -53.346,52.17c0,33.26 20.809,52.882 50.725,52.882c8.374,0 15.077,-0.96 17.945,-2.399l0,-33.739l-24.891,0l0,-28.472l60.064,0l0,84.95l0.001,0z"/>
    </g>
    <g stroke="null" id="svg_46"/>
    <g stroke="null" id="svg_47"/>
    <g stroke="null" id="svg_48"/>
    <g stroke="null" id="svg_49"/>
    <g stroke="null" id="svg_50"/>
    <g stroke="null" id="svg_51"/>
    <g stroke="null" id="svg_52"/>
    <g stroke="null" id="svg_53"/>
    <g stroke="null" id="svg_54"/>
    <g stroke="null" id="svg_55"/>
    <g stroke="null" id="svg_56"/>
    <g stroke="null" id="svg_57"/>
    <g stroke="null" id="svg_58"/>
    <g stroke="null" id="svg_59"/>
    <g stroke="null" id="svg_60"/>
   </g>
  </g>
  <g stroke="null" id="svg_14">
   <g stroke="null" transform="matrix(27.15670675768932,0,0,27.15670675768932,571.2043117244143,-116.66083135416682) " id="svg_11">
    <path id="svg_12" fill="#848484" d="m4.80931,23.77312c-0.205,0 -0.401,-0.084 -0.542,-0.232l-5.25,-5.5c-0.455,-0.476 -0.117,-1.268 0.542,-1.268l2.75,0l0,-5.75c0,-0.689 0.561,-1.25 1.25,-1.25l2.5,0c0.689,0 1.25,0.561 1.25,1.25l0,5.75l2.75,0c0.659,0 0.997,0.792 0.542,1.268l-5.25,5.5c-0.141,0.148 -0.337,0.232 -0.542,0.232z"/>
    <path id="svg_13" fill="#848484" d="m15.05931,29.77312l-20.5,0c-0.965,0 -1.75,-0.785 -1.75,-1.75l0,-0.5c0,-0.965 0.785,-1.75 1.75,-1.75l20.5,0c0.965,0 1.75,0.785 1.75,1.75l0,0.5c0,0.965 -0.785,1.75 -1.75,1.75z"/>
   </g>
  </g>
 </g>
</svg>