<svg xmlns="http://www.w3.org/2000/svg" xmlns:xlink="http://www.w3.org/1999/xlink" width="16" height="16" viewBox="0 0 16 16">
  <defs>
    <clipPath id="clip-path">
      <rect width="16" height="16" fill="none"/>
    </clipPath>
  </defs>
  <g id="Symbol_154_66" data-name="Symbol 154 – 66" clip-path="url(#clip-path)">
    <rect id="Rectángulo_479" data-name="Rectángulo 479" width="16" height="16" fill="none"/>
    <path id="Trazado_1" data-name="Trazado 1" d="M15,14H10a2,2,0,0,1-4,0H1a.961.961,0,0,1-.9-.7,1.068,1.068,0,0,1,.3-1.1A4.026,4.026,0,0,0,2,9V6A6,6,0,0,1,14,6V9a4.026,4.026,0,0,0,1.6,3.2.947.947,0,0,1,.3,1.1A.961.961,0,0,1,15,14Z" transform="translate(-0.063)" fill="#0a94d6" fill-rule="evenodd"/>
  </g>
</svg>
