<svg xmlns="http://www.w3.org/2000/svg" width="18.507" height="18.435" viewBox="0 0 18.507 18.435"><defs><style>.a{fill:#0a94d6;}</style></defs><path class="a" d="M0,300v.181a1.99,1.99,0,0,0,1.988,1.988H16.519a1.99,1.99,0,0,0,1.988-1.988V300Zm0,0" transform="translate(0 -289.156)"/><path class="a" d="M2.226,9.759A7,7,0,0,1,3.136,6.8c0-.009.008-.018.013-.026s.014-.023.022-.034A7.1,7.1,0,0,1,5.7,4.22L5.729,4.2l.027-.014a7.038,7.038,0,0,1,6.995,0l.027.014.034.022a7.1,7.1,0,0,1,2.524,2.524c.007.011.015.022.022.034s.009.018.013.026a7,7,0,0,1,.91,2.956h2.226V1.988A1.99,1.99,0,0,0,16.519,0H1.988A1.99,1.99,0,0,0,0,1.988V9.759ZM3.831,1.048H14.675a.542.542,0,1,1,0,1.084H3.831a.542.542,0,0,1,0-1.084Zm0,0"/><path class="a" d="M213.578,241.084h3.067a1.626,1.626,0,0,0-3.067,0Zm0,0" transform="translate(-205.858 -231.325)"/><path class="a" d="M103.041,124.127l-.448.258a.542.542,0,1,1-.542-.939l.446-.258a6.016,6.016,0,0,0-1.433-1.433l-.258.446a.542.542,0,1,1-.939-.542l.258-.448a5.915,5.915,0,0,0-1.958-.525v.517a.542.542,0,0,1-1.084,0v-.517a5.919,5.919,0,0,0-1.958.525l.258.448a.542.542,0,1,1-.939.542l-.258-.446a6.012,6.012,0,0,0-1.433,1.433l.446.258a.542.542,0,1,1-.542.939l-.448-.258a5.919,5.919,0,0,0-.525,1.958H94.97a2.709,2.709,0,0,1,3.515-2.029l.3-.517a.542.542,0,1,1,.939.542l-.3.518a2.713,2.713,0,0,1,.86,1.486h3.283A5.919,5.919,0,0,0,103.041,124.127Zm0,0" transform="translate(-88.373 -116.325)"/><path class="a" d="M129.494,392.169H128.41L127.687,390h-3.615l-.723,2.169h-1.084A1.266,1.266,0,0,0,121,393.434v.361a.542.542,0,0,0,.542.542h8.675a.542.542,0,0,0,.542-.542v-.361A1.266,1.266,0,0,0,129.494,392.169Zm0,0" transform="translate(-116.626 -375.903)"/></svg>