<svg xmlns="http://www.w3.org/2000/svg" width="12.5" height="12.451" viewBox="0 0 12.5 12.451"><defs><style>.a{fill:#fff;}</style></defs><path class="a" d="M0,300v.122a1.344,1.344,0,0,0,1.343,1.343h9.814a1.344,1.344,0,0,0,1.343-1.343V300Zm0,0" transform="translate(0 -292.676)"/><path class="a" d="M1.5,6.592a4.727,4.727,0,0,1,.615-2l.009-.018.015-.023a4.8,4.8,0,0,1,1.7-1.7l.023-.015.018-.009a4.753,4.753,0,0,1,4.725,0l.018.009.023.015a4.8,4.8,0,0,1,1.7,1.7l.015.023.009.018a4.727,4.727,0,0,1,.615,2h1.5V1.343A1.344,1.344,0,0,0,11.157,0H1.343A1.344,1.344,0,0,0,0,1.343V6.592ZM2.588.708H9.912a.366.366,0,0,1,0,.732H2.588a.366.366,0,0,1,0-.732Zm0,0"/><path class="a" d="M213.578,240.732h2.071a1.1,1.1,0,0,0-2.071,0Zm0,0" transform="translate(-208.364 -234.141)"/><path class="a" d="M99.356,123.011l-.3.175a.366.366,0,1,1-.366-.634l.3-.174a4.064,4.064,0,0,0-.968-.968l-.174.3a.366.366,0,1,1-.634-.366l.175-.3a4,4,0,0,0-1.322-.355v.349a.366.366,0,0,1-.732,0v-.349a4,4,0,0,0-1.322.355l.175.3a.366.366,0,1,1-.634.366l-.174-.3a4.061,4.061,0,0,0-.968.968l.3.174a.366.366,0,1,1-.366.634l-.3-.175a4,4,0,0,0-.355,1.322H93.9a1.83,1.83,0,0,1,2.374-1.37l.2-.35a.366.366,0,1,1,.634.366l-.2.35a1.832,1.832,0,0,1,.581,1h2.217A4,4,0,0,0,99.356,123.011Zm0,0" transform="translate(-89.449 -117.741)"/><path class="a" d="M126.737,391.465H126L125.517,390h-2.441l-.488,1.465h-.732a.855.855,0,0,0-.854.854v.244a.366.366,0,0,0,.366.366h5.859a.366.366,0,0,0,.366-.366v-.244A.855.855,0,0,0,126.737,391.465Zm0,0" transform="translate(-118.046 -380.479)"/></svg>