<svg xmlns="http://www.w3.org/2000/svg" width="8.212" height="8.391" viewBox="0 0 8.212 8.391"><defs><style>.a{fill:none;}.b{fill:#46bc98;}</style></defs><g transform="translate(0.212)"><g transform="translate(0 8.391) rotate(-90)"><rect class="a" width="8" height="8" transform="translate(0.154 -0.212)"/><path class="b" d="M8.391.24v7.6c0,.08-.16.16-.32.16a.8.8,0,0,1-.32-.08L3.431,5.84H.391a.481.481,0,0,1-.32-.08c-.16-.08,0-.08,0-.16V2.4c0-.08,0-.08.16-.16a.827.827,0,0,1,.32-.08h3.04L7.911,0h.32C8.391.08,8.391.08,8.391.24Z"/></g></g></svg>