<svg xmlns="http://www.w3.org/2000/svg" width="21.785" height="18.442" viewBox="0 0 21.785 18.442"><defs><style>.a{fill:#0a94d6;}</style></defs><g transform="translate(0 -39.279)"><g transform="translate(11.973 44.124)"><path class="a" d="M285.462,153.145,281.4,166l9.812-12.857Z" transform="translate(-281.402 -153.145)"/></g><g transform="translate(0.046 39.576)"><path class="a" d="M4.2,46.263,1.082,50h5.3Z" transform="translate(-1.082 -46.263)"/></g><g transform="translate(16.44 39.576)"><path class="a" d="M388.568,46.263,386.386,50h5.3Z" transform="translate(-386.386 -46.263)"/></g><g transform="translate(0 44.124)"><path class="a" d="M5.752,153.145H0L9.812,166Z" transform="translate(0 -153.145)"/></g><g transform="translate(11.867 39.279)"><path class="a" d="M278.906,39.279l3.785,3.785,2.208-3.785Z" transform="translate(-278.906 -39.279)"/></g><g transform="translate(3.924 39.279)"><path class="a" d="M92.232,39.279l2.208,3.785,3.785-3.785Z" transform="translate(-92.232 -39.279)"/></g><g transform="translate(6.598 44.124)"><path class="a" d="M155.076,153.145l4.294,13.6,4.294-13.6Z" transform="translate(-155.076 -153.145)"/></g><g transform="translate(7.022 39.446)"><path class="a" d="M168.91,43.208l-3.87,3.87h7.74Z" transform="translate(-165.04 -43.208)"/></g></g></svg>