<svg xmlns="http://www.w3.org/2000/svg" width="14.396" height="12.188" viewBox="0 0 14.396 12.188"><defs><style>.a{fill:#fff;}</style></defs><g transform="translate(7.912 3.202)"><path class="a" d="M284.085,153.145l-2.683,8.5,6.484-8.5Z" transform="translate(-281.402 -153.145)"/></g><g transform="translate(0.03 0.196)"><path class="a" d="M3.142,46.263l-2.06,2.472h3.5Z" transform="translate(-1.082 -46.263)"/></g><g transform="translate(10.864 0.196)"><path class="a" d="M387.828,46.263l-1.442,2.472h3.5Z" transform="translate(-386.386 -46.263)"/></g><g transform="translate(0 3.202)"><path class="a" d="M3.8,153.145H0l6.484,8.5Z" transform="translate(0 -153.145)"/></g><g transform="translate(7.842)"><path class="a" d="M278.906,39.279l2.5,2.5,1.459-2.5Z" transform="translate(-278.906 -39.279)"/></g><g transform="translate(2.593)"><path class="a" d="M92.232,39.279l1.459,2.5,2.5-2.5Z" transform="translate(-92.232 -39.279)"/></g><g transform="translate(4.36 3.202)"><path class="a" d="M155.076,153.145l2.838,8.986,2.838-8.986Z" transform="translate(-155.076 -153.145)"/></g><g transform="translate(4.641 0.11)"><path class="a" d="M167.6,43.208l-2.558,2.558h5.115Z" transform="translate(-165.04 -43.208)"/></g></svg>