<svg id="Icon_open-dashboard" data-name="Icon open-dashboard" xmlns="http://www.w3.org/2000/svg" width="27.5" height="27.5" viewBox="0 0 27.5 27.5">
  <path id="Icon_open-dashboard-2" data-name="Icon open-dashboard" d="M13.75,0A13.75,13.75,0,1,0,27.5,13.75,13.79,13.79,0,0,0,13.75,0Zm0,3.437A10.312,10.312,0,1,1,3.438,13.75,10.3,10.3,0,0,1,13.75,3.437Zm0,3.437a1.719,1.719,0,1,0,1.719,1.719A1.7,1.7,0,0,0,13.75,6.875ZM8.044,10.312A1.719,1.719,0,0,0,7.391,13.2l3.128,3.128a3.49,3.49,0,0,0-.206.859A3.438,3.438,0,1,0,13.75,13.75a3.49,3.49,0,0,0-.859.206L9.762,10.828a1.719,1.719,0,0,0-1.512-.55,1.719,1.719,0,0,0-.206,0Zm10.863,0a1.719,1.719,0,1,0,1.719,1.719A1.7,1.7,0,0,0,18.906,10.312Z" fill="#0a95d6"/>
</svg>
