<svg xmlns="http://www.w3.org/2000/svg" xmlns:xlink="http://www.w3.org/1999/xlink" width="16" height="16" viewBox="0 0 16 16">
  <defs>
    <clipPath id="clip-path">
      <rect width="16" height="16" fill="none"/>
    </clipPath>
  </defs>
  <g id="Symbol_268_2" data-name="Symbol 268 – 2" clip-path="url(#clip-path)">
    <rect id="Rectángulo_981" data-name="Rectángulo 981" width="16" height="16" fill="none"/>
    <path id="Unión_62" data-name="Unión 62" d="M12,16a2,2,0,0,1-2-2V12a2,2,0,0,1,2-2h2a2,2,0,0,1,2,2v2a2,2,0,0,1-2,2ZM2,16a2,2,0,0,1-2-2V12a2,2,0,0,1,2-2H4a2,2,0,0,1,2,2v2a2,2,0,0,1-2,2ZM12,6a2,2,0,0,1-2-2V2a2,2,0,0,1,2-2h2a2,2,0,0,1,2,2V4a2,2,0,0,1-2,2ZM2,6A2,2,0,0,1,0,4V2A2,2,0,0,1,2,0H4A2,2,0,0,1,6,2V4A2,2,0,0,1,4,6Z" fill="#0a94d6"/>
  </g>
</svg>
