<svg xmlns="http://www.w3.org/2000/svg" width="19.286" height="13.5" viewBox="0 0 19.286 13.5"><defs><style>.a{fill:#0a94d6;}</style></defs><path class="a" d="M16.2,8.114a2.9,2.9,0,0,0-2.7-3.935,2.878,2.878,0,0,0-1.606.488,4.822,4.822,0,0,0-9,2.4c0,.081,0,.163.006.244a4.34,4.34,0,0,0,1.44,8.434H15.429A3.857,3.857,0,0,0,16.2,8.114Zm-4,2.673L9.019,13.963a.484.484,0,0,1-.681,0L5.162,10.787A.482.482,0,0,1,5.5,9.964H7.473V6.589a.484.484,0,0,1,.482-.482H9.4a.484.484,0,0,1,.482.482V9.964h1.971a.482.482,0,0,1,.341.823Z" transform="translate(0 -2.25)"/></svg>