<svg xmlns="http://www.w3.org/2000/svg" width="19" height="20.703" viewBox="0 0 19 20.703"><defs><style>.a{fill:#0a94d6;}</style></defs><g transform="translate(-18.125)"><g transform="translate(18.125)"><path class="a" d="M26.362,0a8.238,8.238,0,0,0-.432,16.465,6.033,6.033,0,0,1-.07-.921c0-.07,0-.136,0-.2a7.123,7.123,0,1,1,7.622-7.109A7.319,7.319,0,0,1,33.354,9.6a6.052,6.052,0,0,1,1.067.357A8.4,8.4,0,0,0,34.6,8.237,8.244,8.244,0,0,0,26.362,0Z" transform="translate(-18.125)"/></g><g transform="translate(20.183 2.058)"><g transform="translate(0)"><path class="a" d="M68.1,43.8a6.178,6.178,0,0,0-.395,12.344,6.091,6.091,0,0,1,6-4.967c.16,0,.315.009.465.019A6.2,6.2,0,0,0,68.1,43.8Zm2.8,7.26H67.7a.468.468,0,0,1-.451-.484v-4.2a.47.47,0,1,1,.94,0v3.74H70.9a.47.47,0,0,1,0,.94Z" transform="translate(-61.925 -43.8)"/></g></g><g transform="translate(26.799 10.38)"><g transform="translate(0)"><path class="a" d="M210.426,221.567a5.161,5.161,0,0,0-7.664,3.9v0a4.174,4.174,0,0,0-.038.592,5.162,5.162,0,1,0,7.7-4.492Zm-.836,7.443a3.17,3.17,0,0,1-3.374-.7,3.7,3.7,0,0,1-.616-.855h-.587a.47.47,0,1,1,0-.94h.305a3.778,3.778,0,0,1-.028-.564h-.277a.47.47,0,1,1,0-.94h.451a3.364,3.364,0,0,1,.752-1.189,3.161,3.161,0,0,1,3.374-.7.469.469,0,0,1-.338.874,2.217,2.217,0,0,0-2.368.489,2.41,2.41,0,0,0-.395.526h2.669a.47.47,0,1,1,0,.94H206.24a2.53,2.53,0,0,0,.038.564h2.636a.47.47,0,0,1,0,.94H206.7c.056.047.113.127.179.193a2.221,2.221,0,0,0,2.373.493.47.47,0,0,1,.334.879Z" transform="translate(-202.725 -220.9)"/></g></g></g></svg>