<svg xmlns="http://www.w3.org/2000/svg" width="40.5" height="67.589" viewBox="0 0 40.5 67.589">
  <g id="Grupo_1044" data-name="Grupo 1044" transform="translate(-163.668 -70.498)" style="mix-blend-mode: multiply;isolation: isolate">
    <g id="Grupo_815" data-name="Grupo 815" transform="translate(163.668 70.498)">
      <g id="Grupo_814" data-name="Grupo 814" transform="translate(27.808 3.557)">
        <path id="Trazado_357" data-name="Trazado 357" d="M240.061,78.673v3.392h-4.685v7.027h4.685v3.391H227.58V89.092H233V82.065H227.58V78.673Z" transform="translate(-227.58 -78.673)" fill="#0a94d6"/>
        <path id="Trazado_358" data-name="Trazado 358" d="M230.15,122.984V117.25l-2.57-1.014v-3.653l12.481,5.489v4.09l-12.481,5.489V124Zm7.22-2.867-4.947-1.957v3.915Z" transform="translate(-227.58 -97.829)" fill="#0a94d6"/>
        <path id="Trazado_359" data-name="Trazado 359" d="M231.933,149.007l8.128-5.524v3.985l-5.437,3.234,5.437,3.234v3.986l-8.128-5.524H227.58v-3.391Z" transform="translate(-227.58 -115.284)" fill="#0a94d6"/>
        <path id="Trazado_360" data-name="Trazado 360" d="M230.15,183.336V177.6l-2.57-1.014v-3.654l12.481,5.489v4.091L227.58,188v-3.653Zm7.22-2.867-4.947-1.958v3.916Z" transform="translate(-227.58 -131.922)" fill="#0a94d6"/>
      </g>
      <path id="Trazado_361" data-name="Trazado 361" d="M176.957,116.159l-.163-.688-3.039-.689-1.579.729-1.581-.729-.607-.607-1.66,1.581-.973-.933-1.176-.648,1.46-1.5-1.215-.446-.932-1.7,1.135-.365.647-.77,1.985,1.7.73-.973-.121-.729-1.7-.284-1.378-.85.2-.77-1.054-.446-1.257-.445-.486-1.54,2.553.446-1.986-1.945-.364-1.053,1.54.445,1.012-.445-2.755-1.459-.526-1.742,1.783-.325-1.418-1.742,3.118,1.337,2.351-.648-.729-1.458-1.459-1.256,3.525.608,2.268.081,1.864.2s1.418-1.337,1.459-1.216,1.174-.405,1.174-.405l1.378.689a14.947,14.947,0,0,1,2.472.2c-.2.122-1.216-1.134-1.216-1.134l-1.418-.325-.972-.851-1.012.324-.973-.527-1.743.284-.526,1.053-2.148-.04-2.594-1.3,2.188-.405,1.621-.567-3-.244-1.257-1.053-.892-.607.69-.73-1.215-.567.16-1.175,2.027.324s1.215-.121,1.257,0a15.609,15.609,0,0,0,1.417,1.135l1.459-.446,1.3-.081h1.783l-1.864-.932-1.661.405-1.539-1.134-2.35-1.012-.851-1.783,2.675.851,1.9-.405.608-.892-.245-1.256-1.093-1.134-.486-1.175L174.851,82l1.66-.364,1.865-.2-2.39-1.945-1.743-.972-1.135-.729.2-1.3s1.3-1.134,1.419-1.013.727.972.727.972l1.5-.981,1.174,2.116-.081,1.5,1.581.081.77-1.175-1.419-.77-.486-2.31,2.026.446,1.5-.2.568-1.094.607-2.148,1.418.162,1.741-.729,2.025-.243.812,1.418,1.337-.81,1.3-1.216,1.459.567-2.673,1.54V130.1h-5.268l1.134-1.823.446-7.982-1.337-2.39-3.242-2.836Z" transform="translate(-163.668 -70.498)" fill="#0a94d6"/>
    </g>
    <g id="Grupo_816" data-name="Grupo 816" transform="translate(191.62 135.962)">
      <path id="Trazado_362" data-name="Trazado 362" d="M227.912,221.087h1.88v.383H228.46v.417h1.265v.367H228.46v.461H229.8v.384h-1.893Z" transform="translate(-227.912 -221.031)" fill="#008ad8"/>
      <path id="Trazado_363" data-name="Trazado 363" d="M234.144,221.6c-.034-.262-.285-.29-.5-.29s-.372.1-.372.236c0,.107.091.167.231.189l.685.11c.367.059.646.2.646.563s-.254.677-1.046.677c-.49,0-1.127-.062-1.133-.691h.615c.005.277.282.325.518.325.258,0,.432-.077.432-.251,0-.155-.124-.2-.342-.232l-.5-.076c-.349-.054-.687-.158-.687-.57,0-.448.366-.63,1-.63.416,0,1.03.07,1.066.639Z" transform="translate(-230.589 -220.958)" fill="#008ad8"/>
      <path id="Trazado_364" data-name="Trazado 364" d="M238.536,221.47h-.747v-.383h2.041v.383h-.747V223.1h-.546Z" transform="translate(-233.492 -221.031)" fill="#008ad8"/>
      <path id="Trazado_365" data-name="Trazado 365" d="M243.823,222.684H242.9l-.165.415h-.588l.885-2.012h.659l.885,2.012h-.59Zm-.463-1.163-.316.8h.631Z" transform="translate(-235.953 -221.031)" fill="#008ad8"/>
      <path id="Trazado_366" data-name="Trazado 366" d="M248.024,221.47h-.749v-.383h2.041v.383h-.747V223.1h-.545Z" transform="translate(-238.85 -221.031)" fill="#008ad8"/>
      <path id="Trazado_367" data-name="Trazado 367" d="M252.4,221.087h1.88v.383h-1.334v.417h1.266v.367h-1.266v.461h1.345v.384H252.4Z" transform="translate(-241.747 -221.031)" fill="#008ad8"/>
    </g>
    <g id="Grupo_817" data-name="Grupo 817" transform="translate(191.703 132.634)">
      <path id="Trazado_368" data-name="Trazado 368" d="M228.1,213.308h2.08c.794,0,.925.485.925.778a.652.652,0,0,1-.466.689v.008c.341.052.395.486.395.765a1.06,1.06,0,0,0,.147.622h-.849a1.052,1.052,0,0,1-.077-.549c0-.4-.172-.5-.412-.5h-.966v1.05H228.1Zm.778,1.267h1.031a.348.348,0,0,0,.373-.365c0-.284-.225-.356-.414-.356h-.99Z" transform="translate(-228.102 -213.308)" fill="#008ad8"/>
      <path id="Trazado_369" data-name="Trazado 369" d="M235.951,213.308h2.673v.545h-1.9v.593h1.8v.52h-1.8v.657h1.913v.546h-2.69Z" transform="translate(-232.536 -213.308)" fill="#008ad8"/>
      <path id="Trazado_370" data-name="Trazado 370" d="M244.748,215.58h-1.315l-.233.59h-.837l1.258-2.862h.938l1.259,2.862h-.838Zm-.658-1.655-.449,1.134h.9Z" transform="translate(-236.158 -213.308)" fill="#008ad8"/>
      <path id="Trazado_371" data-name="Trazado 371" d="M250.8,213.308h.778V215.6h1.742v.57H250.8Z" transform="translate(-240.925 -213.308)" fill="#008ad8"/>
    </g>
  </g>
</svg>
