<svg xmlns="http://www.w3.org/2000/svg" xmlns:xlink="http://www.w3.org/1999/xlink" width="16" height="16" viewBox="0 0 16 16"><defs><style>.a{fill:none;}.b{clip-path:url(#a);}.c{fill:#0a94d6;fill-rule:evenodd;}</style><clipPath id="a"><rect class="a" width="16" height="16"/></clipPath></defs><g class="b"><path class="c" d="M5,8A.945.945,0,0,0,6,9h4a1,1,0,0,0,1-1,.945.945,0,0,0-1-1H6A1,1,0,0,0,5,8ZM0,5A4.951,4.951,0,0,1,5,0h6a4.951,4.951,0,0,1,5,5V15a.945.945,0,0,1-1,1H5a4.951,4.951,0,0,1-5-5Z"/></g></svg>