<svg id="Componente_146_1" data-name="Componente 146 – 1" xmlns="http://www.w3.org/2000/svg" width="24" height="24" viewBox="0 0 24 24">
  <rect id="Rectángulo_314" data-name="Rectángulo 314" width="24" height="24" fill="none"/>
  <path id="Trazado_125" data-name="Trazado 125" d="M8.4,24a7.568,7.568,0,0,1-5.6-2.4,7.726,7.726,0,0,1-2.8-6,8.025,8.025,0,0,1,.6-3A6.916,6.916,0,0,1,2,10.2l4-4A4.82,4.82,0,0,1,9.6,4.8a5.464,5.464,0,0,1,3.8,1.6,5.135,5.135,0,0,1,1.6,4A4.82,4.82,0,0,1,13.6,14l-2.2,2a1.528,1.528,0,0,1-1,.4A2.144,2.144,0,0,1,9.2,16a2.843,2.843,0,0,1-.4-1.2,2.843,2.843,0,0,1,.4-1.2l2.2-2.2a1.209,1.209,0,0,0,.6-1.2,2.443,2.443,0,0,0-.8-1.8A2.331,2.331,0,0,0,9.8,8a2.891,2.891,0,0,0-1.4.4l-4.2,4a5.533,5.533,0,0,0-1,3.2,5.851,5.851,0,0,0,1.6,3.8,4.15,4.15,0,0,0,2,1.2,3.457,3.457,0,0,0,2,.2c.6-.2,1.2-.2,1.6-.4a4.184,4.184,0,0,0,1.2-.8l8-8A4.386,4.386,0,0,0,21,8.2a5.24,5.24,0,0,0-1.8-3.8,8.906,8.906,0,0,0-2.4-1.2H15a4.235,4.235,0,0,0-1.4.6,2.537,2.537,0,0,1-1.2.2,1.329,1.329,0,0,1-1-.8c-.2-.2-.2-.6-.2-1.2A3.511,3.511,0,0,1,12,1a7.877,7.877,0,0,1,4-1,7.4,7.4,0,0,1,5.2,2A8.44,8.44,0,0,1,24,8a7.827,7.827,0,0,1-2.2,5.8l-8,8A7.385,7.385,0,0,1,8.4,24Z" fill="#88cebc"/>
</svg>
